<svg width="279" height="308" viewBox="0 0 279 308" fill="none" xmlns="http://www.w3.org/2000/svg">
<g filter="url(#filter0_d_18_676)">
<path d="M143.6 300C114.8 300 89.9333 293.733 69 281.2C48.2 268.667 32.1333 251.133 20.8 228.6C9.6 206.067 4 179.867 4 150C4 120.133 9.6 93.9333 20.8 71.4C32.1333 48.8667 48.2 31.3333 69 18.8C89.9333 6.26666 114.8 -5.72205e-06 143.6 -5.72205e-06C176.667 -5.72205e-06 204.4 8.19999 226.8 24.6C249.333 41 265.2 63.2 274.4 91.2L219.6 106.4C214.267 88.9333 205.267 75.4 192.6 65.8C179.933 56.0667 163.6 51.2 143.6 51.2C125.333 51.2 110.067 55.2667 97.8 63.4C85.6667 71.5333 76.5333 83 70.4 97.8C64.2667 112.6 61.2 130 61.2 150C61.2 170 64.2667 187.4 70.4 202.2C76.5333 217 85.6667 228.467 97.8 236.6C110.067 244.733 125.333 248.8 143.6 248.8C163.6 248.8 179.933 243.933 192.6 234.2C205.267 224.467 214.267 210.933 219.6 193.6L274.4 208.8C265.2 236.8 249.333 259 226.8 275.4C204.4 291.8 176.667 300 143.6 300Z" fill="#00CC7A"/>
</g>
<defs>
<filter id="filter0_d_18_676" x="0" y="0" width="278.4" height="308" filterUnits="userSpaceOnUse" color-interpolation-filters="sRGB">
<feFlood flood-opacity="0" result="BackgroundImageFix"/>
<feColorMatrix in="SourceAlpha" type="matrix" values="0 0 0 0 0 0 0 0 0 0 0 0 0 0 0 0 0 0 127 0" result="hardAlpha"/>
<feOffset dy="4"/>
<feGaussianBlur stdDeviation="2"/>
<feComposite in2="hardAlpha" operator="out"/>
<feColorMatrix type="matrix" values="0 0 0 0 0 0 0 0 0 0 0 0 0 0 0 0 0 0 0.25 0"/>
<feBlend mode="normal" in2="BackgroundImageFix" result="effect1_dropShadow_18_676"/>
<feBlend mode="normal" in="SourceGraphic" in2="effect1_dropShadow_18_676" result="shape"/>
</filter>
</defs>
</svg>
